<?xml version="1.0" standalone="no"?>
<!DOCTYPE svg PUBLIC "-//W3C//DTD SVG 20010904//EN"
 "http://www.w3.org/TR/2001/REC-SVG-20010904/DTD/svg10.dtd">
<svg version="1.0" xmlns="http://www.w3.org/2000/svg"
 width="1024.000000pt" height="1024.000000pt" viewBox="0 0 1024.000000 1024.000000"
 preserveAspectRatio="xMidYMid meet">
<metadata>
Created by potrace 1.11, written by Peter Selinger 2001-2013
</metadata>
<g transform="translate(0.000000,1024.000000) scale(0.100000,-0.100000)"
fill="#000000" stroke="none">
<path d="M4850 6982 c-24 -8 -198 -190 -340 -355 -14 -16 -38 -43 -55 -61 -16
-17 -66 -71 -110 -121 -44 -49 -105 -116 -136 -149 -55 -59 -124 -136 -162
-180 -10 -12 -40 -43 -65 -71 -26 -27 -85 -93 -132 -145 -47 -52 -94 -104
-105 -116 -31 -33 -185 -202 -235 -258 -25 -28 -68 -76 -96 -106 -28 -30 -67
-73 -87 -95 l-35 -40 28 -25 c15 -14 70 -63 121 -110 173 -158 282 -248 449
-373 63 -47 120 -90 125 -95 60 -51 450 -295 615 -384 123 -67 452 -228 464
-228 2 0 25 -10 52 -22 27 -12 51 -23 54 -23 3 -1 19 -7 35 -14 163 -68 676
-245 915 -315 47 -14 123 -36 170 -50 331 -97 958 -231 1220 -261 30 -3 62 -8
70 -10 8 -2 44 -7 80 -10 36 -3 72 -8 80 -10 8 -2 46 -6 83 -10 37 -3 78 -8
90 -11 12 -2 50 -6 84 -9 34 -2 75 -7 90 -9 15 -3 60 -7 98 -11 39 -3 86 -8
105 -10 19 -2 71 -7 115 -10 44 -3 91 -8 105 -10 14 -2 68 -6 120 -9 52 -3
142 -9 200 -13 58 -3 360 -7 672 -7 l568 -1 31 31 c25 25 32 42 35 79 3 42 0
51 -29 79 -27 27 -56 39 -187 75 -85 23 -240 67 -345 96 -104 30 -266 75 -360
100 -93 26 -177 49 -185 52 -8 4 -18 6 -22 5 -8 -2 -65 61 -228 248 -36 41
-67 77 -70 80 -3 3 -115 131 -250 285 -134 154 -247 282 -250 285 -3 3 -34 39
-70 80 -77 89 -106 121 -154 175 -20 22 -71 81 -113 132 -82 97 -120 123 -175
122 -43 -1 -28 9 -371 -237 -108 -78 -200 -142 -203 -142 -6 0 -70 63 -1327
1316 -470 469 -864 857 -877 864 -26 14 -77 20 -100 12z"/>
<path d="M2780 5469 c-47 -47 -155 -160 -240 -250 -85 -90 -196 -207 -247
-259 -50 -52 -100 -105 -110 -116 -10 -12 -93 -99 -184 -195 -92 -96 -186
-194 -209 -219 -23 -25 -113 -119 -199 -210 -87 -91 -196 -205 -242 -253 -239
-252 -202 -222 -314 -252 -55 -15 -107 -28 -115 -30 -8 -2 -82 -22 -165 -45
-82 -23 -157 -43 -165 -45 -63 -14 -452 -121 -477 -132 -18 -7 -41 -25 -50
-40 -25 -37 -23 -105 2 -133 47 -53 -111 -50 2682 -50 1532 0 2593 4 2588 9
-6 5 -46 28 -90 52 -44 23 -92 50 -107 61 -14 10 -29 18 -32 18 -4 0 -19 8
-34 19 -15 10 -88 58 -162 106 -200 130 -385 270 -555 419 -75 65 -365 353
-455 452 -30 33 -75 82 -100 109 -191 209 -456 566 -635 855 -41 67 -83 121
-117 151 -70 61 -90 70 -140 67 -39 -2 -50 -10 -128 -89z"/>
</g>
</svg>
